<?xml version="1.0" encoding="UTF-8" standalone="no"?>
<!DOCTYPE svg PUBLIC "-//W3C//DTD SVG 1.1//EN" "http://www.w3.org/Graphics/SVG/1.1/DTD/svg11.dtd">
<svg width="100%" height="100%" viewBox="0 0 398 100" version="1.1" xmlns="http://www.w3.org/2000/svg" xmlns:xlink="http://www.w3.org/1999/xlink" xml:space="preserve" xmlns:serif="http://www.serif.com/" style="fill-rule:evenodd;clip-rule:evenodd;stroke-linejoin:round;stroke-miterlimit:2;">
    <g transform="matrix(1,0,0,1,-154.951996,-282.74498)">
        <g transform="matrix(1,0,0,1,0,245)">
            <g transform="matrix(1.234555,0,0,1.234555,153.776704,8.430489)">
                <path d="M17.335,104.501C8.465,105.441 0.952,103.353 0.952,92.188L0.952,73.301L13.996,71.736L13.996,90.727C13.996,93.023 15.143,94.066 17.231,93.753C19.213,93.544 20.674,92.396 20.674,90.101L20.674,76.015C20.674,61.927 0.952,65.788 0.952,46.692L0.952,39.701C0.952,28.432 8.465,24.884 17.335,23.945C26.205,23.005 33.717,25.093 33.717,36.362L33.717,47.214L20.674,48.779L20.674,37.823C20.674,35.527 19.526,34.484 17.543,34.693C15.561,34.901 13.996,36.049 13.996,38.449L13.996,44.396C13.996,57.127 33.717,52.432 33.717,74.032L33.717,88.849C33.717,100.119 26.205,103.665 17.335,104.501Z" style="fill:rgb(238,238,238);fill-rule:nonzero;"/>
                <path d="M50.413,104.605C42.168,105.336 35.386,103.457 35.386,93.335L35.386,61.197C35.386,51.075 42.168,47.944 50.516,47.214C58.76,46.484 65.543,48.362 65.543,58.484L65.543,74.97L47.909,76.64L47.909,93.023C47.909,94.693 48.638,95.423 50.204,95.214C51.873,95.005 52.917,94.17 52.917,92.396L52.917,82.693L65.543,81.232L65.543,90.623C65.543,100.745 58.655,103.874 50.413,104.605ZM52.812,58.693C52.812,57.023 52.186,56.292 50.516,56.501C48.846,56.71 47.803,57.545 47.803,59.319L47.803,67.457L52.812,66.936L52.812,58.693Z" style="fill:rgb(238,238,238);fill-rule:nonzero;"/>
                <path d="M79.941,69.44L79.941,103.04L67.627,104.501L67.627,48.779L79.002,47.318L79.002,52.85L79.21,52.85C81.715,49.197 85.053,46.797 89.333,46.797L89.333,61.823C84.637,61.406 79.941,63.493 79.941,69.44Z" style="fill:rgb(238,238,238);fill-rule:nonzero;"/>
                <path d="M104.461,104.605C96.217,105.336 89.434,103.457 89.434,93.335L89.434,61.197C89.434,51.075 96.217,47.944 104.565,47.214C112.809,46.484 119.592,48.362 119.592,58.484L119.592,74.97L101.956,76.64L101.956,93.023C101.956,94.693 102.688,95.423 104.252,95.214C105.922,95.005 106.965,94.17 106.965,92.396L106.965,82.693L119.592,81.232L119.592,90.623C119.592,100.745 112.704,103.874 104.461,104.605ZM106.86,58.693C106.86,57.023 106.235,56.292 104.565,56.501C102.895,56.71 101.852,57.545 101.852,59.319L101.852,67.457L106.86,66.936L106.86,58.693Z" style="fill:rgb(238,238,238);fill-rule:nonzero;"/>
                <path d="M139.208,104.605L139.208,60.988C139.208,59.631 138.581,58.693 137.432,58.693C135.659,58.693 134.094,59.945 134.094,62.449L134.094,103.04L121.676,104.605L121.676,48.779L133.258,47.214L133.258,52.432L133.573,52.432C136.077,49.197 139.52,47.11 143.59,47.11C147.971,47.214 151.624,50.136 151.624,55.875L151.624,103.04L139.208,104.605Z" style="fill:rgb(238,238,238);fill-rule:nonzero;"/>
                <path d="M168.528,104.605C160.286,105.336 153.502,103.457 153.502,93.335L153.502,61.197C153.502,51.075 160.286,47.944 168.633,47.214C176.876,46.484 183.659,48.362 183.659,58.484L183.659,74.97L166.024,76.64L166.024,93.023C166.024,94.693 166.754,95.423 168.319,95.214C169.989,95.005 171.032,94.17 171.032,92.396L171.032,82.693L183.659,81.232L183.659,90.623C183.659,100.745 176.772,103.874 168.528,104.605ZM170.928,58.693C170.928,57.023 170.301,56.292 168.633,56.501C166.963,56.71 165.92,57.545 165.92,59.319L165.92,67.457L170.928,66.936L170.928,58.693Z" style="fill:rgb(238,238,238);fill-rule:nonzero;"/>
                <path d="M211.309,103.771L195.342,104.397L195.342,25.301L210.889,24.362C220.387,23.84 227.899,25.823 227.899,37.197L227.899,47.005C227.899,54.623 223.622,58.171 218.508,59.006L218.508,59.422C225.395,59.422 228.42,62.345 228.42,69.127L228.42,87.701C228.42,98.658 221.639,103.353 211.309,103.771ZM214.752,38.344C214.752,36.153 213.395,35.109 211.413,35.319L208.491,35.632L208.491,55.145L210.889,55.04C213.083,54.936 214.752,53.579 214.752,51.284L214.752,38.344ZM215.065,69.336C215.065,67.144 213.708,66.101 211.831,66.31L208.491,66.623L208.491,92.814L211.413,92.606C213.501,92.501 215.065,91.144 215.065,88.849L215.065,69.336Z" style="fill:rgb(238,238,238);fill-rule:nonzero;"/>
                <path d="M248.245,104.605L248.245,99.388L248.038,99.388C245.532,102.623 242.09,104.71 238.02,104.71C233.637,104.605 229.881,101.683 229.881,95.945L229.881,82.484C229.881,72.988 235.516,69.544 243.133,69.022L247.516,68.709L247.516,58.693C247.516,57.023 246.889,56.292 245.325,56.501C243.758,56.71 242.715,57.545 242.715,59.319L242.715,64.014L230.612,65.58L230.612,61.301C230.612,51.179 237.186,47.944 245.116,47.214C253.151,46.379 259.829,48.362 259.829,58.484L259.829,103.04L248.245,104.605ZM247.516,77.892L245.532,78.101C243.446,78.31 242.299,79.666 242.299,81.44L242.299,90.832C242.299,92.188 242.821,93.127 244.073,93.127C245.846,93.127 247.516,91.874 247.516,89.371L247.516,77.892Z" style="fill:rgb(238,238,238);fill-rule:nonzero;"/>
                <path d="M276.522,104.605C268.383,105.336 261.706,103.457 261.706,93.335L261.706,61.197C261.706,51.075 268.383,47.944 276.522,47.214C284.663,46.484 291.34,48.362 291.34,58.484L291.34,66.206L279.028,67.562L279.028,58.693C279.028,57.023 278.401,56.292 276.836,56.501C275.27,56.71 274.126,57.545 274.126,59.319L274.126,93.023C274.126,94.693 274.854,95.423 276.42,95.214C277.985,95.005 279.028,94.17 279.028,92.396L279.028,82.379L291.34,81.023L291.34,90.623C291.34,100.745 284.663,103.874 276.522,104.605Z" style="fill:rgb(238,238,238);fill-rule:nonzero;"/>
                <path d="M310.331,104.605L310.331,60.988C310.331,59.631 309.706,58.693 308.555,58.693C306.782,58.693 305.217,59.945 305.217,62.449L305.217,103.04L292.799,104.605L292.799,25.51L305.114,23.945L305.114,41.371C305.114,44.918 305.114,48.675 304.905,52.432L305.114,52.432C307.62,49.197 310.643,47.005 314.713,47.005C319.096,47.005 322.747,50.032 322.747,55.875L322.747,103.04L310.331,104.605Z" style="fill:rgb(238,238,238);fill-rule:nonzero;"/>
            </g>
        </g>
    </g>
</svg>
